<svg id="Capa_1" enable-background="new 0 0 512 512" height="512" viewBox="0 0 512 512" width="512" xmlns="http://www.w3.org/2000/svg"><path d="m451 437v75h-390v-75c0-8.28 6.72-15 15-15h360c8.28 0 15 6.72 15 15z" fill="#fdbf00"/><path d="m451 437v75h-195v-90h180c8.28 0 15 6.72 15 15z" fill="#ff9100"/><path d="m451 137v60c0 8.28-6.72 15-15 15h-360c-8.28 0-15-6.72-15-15v-60c0-24.81 20.19-45 45-45h300c24.81 0 45 20.19 45 45z" fill="#fdbf00"/><path d="m451 137v60c0 8.28-6.72 15-15 15h-180v-120h150c24.81 0 45 20.19 45 45z" fill="#ff9100"/><path d="m390 212h-67l-5-90 5-90h67z" fill="#e8dde3"/><path d="m323 212h-67l-7-92 7-88h67z" fill="#4bb9ec"/><path d="m256 212h-67l-5-92.5 5-87.5h67z" fill="#ff5e39"/><path d="m189 212h-67v-212h67z" fill="#6c6fa9"/><path d="m61 197h390v240h-390z" fill="#ffda2d"/><path d="m256 197h195v240h-195z" fill="#fdbf00"/><path d="m323 242-5 60 5 90h67v-150z" fill="#e8dde3"/><path d="m256 242-7 58 7 92h67v-150z" fill="#4bb9ec"/><path d="m189 242-5 57.5 5 92.5h67v-150z" fill="#ff5e39"/><path d="m122 242v150h67v-150z" fill="#6c6fa9"/></svg>