<svg id="Capa_1" enable-background="new 0 0 511.925 511.925" height="512" viewBox="0 0 511.925 511.925" width="512" xmlns="http://www.w3.org/2000/svg"><path d="m164.116 287.812h90.001v29.995h-90.001z" fill="#574f7f" transform="matrix(.707 -.707 .707 .707 -152.87 236.559)"/><path d="m169.421 300.619h90.001v14.991h-90.001z" fill="#422f5f" transform="matrix(.707 -.707 .707 .707 -155.067 241.864)"/><path d="m466.642 51.305c-.45-.48-2.43-2.51-2.97-3.05-64.33-64.34-169.01-64.34-233.34 0-64.34 64.33-64.34 169.01 0 233.34 64.31 64.33 169 64.34 233.34 0 63.33-63.32 64.32-165.75 2.97-230.29z" fill="#6c6fa9"/><path d="m463.671 281.595c-64.34 64.34-169.03 64.33-233.34 0l233.34-233.34c.54.54 2.52 2.57 2.97 3.05 61.351 64.54 60.361 166.97-2.97 230.29z" fill="#574f7f"/><circle cx="347.001" cy="164.925" fill="#f2ebee" r="135.001"/><path d="m442.461 260.385c-52.66 52.66-138.26 52.66-190.92 0l190.92-190.92c52.641 52.64 52.641 138.28 0 190.92z" fill="#e8dde3"/><path d="m187.901 324.025-31.819-31.82-21.21 21.21 26.4 37.24 37.26 26.42 21.21-21.21z" fill="#ffda2d"/><path d="m219.742 355.865-21.21 21.21-37.26-26.42 26.629-26.63z" fill="#fdbf00"/><path d="m198.532 377.075-134.9 134.85-63.63-63.64 134.87-134.87z" fill="#6c6fa9"/><path d="m198.532 377.075-134.9 134.85-31.81-31.82 134.869-134.87z" fill="#574f7f"/></svg>