<svg id="Capa_1" enable-background="new 0 0 512 512" height="512" viewBox="0 0 512 512" width="512" xmlns="http://www.w3.org/2000/svg"><path d="m361 137v375h-330v-375c0-8.28 6.72-15 15-15h300c8.28 0 15 6.72 15 15z" fill="#f2ebee"/><path d="m361 137v375h-165v-390h150c8.28 0 15 6.72 15 15z" fill="#e8dde3"/><path d="m31 32h330v105h-330z" fill="#76e2f8"/><path d="m196 32h165v105h-165z" fill="#4bb9ec"/><path d="m91 0h30v92h-30z" fill="#e8dde3"/><path d="m151 0h30v92h-30z" fill="#e8dde3"/><path d="m211 0h30v92h-30z" fill="#e2d0da"/><path d="m271 0h30v92h-30z" fill="#e2d0da"/><path d="m481 92v240c0 8.28-6.72 15-15 15h-60c-8.28 0-15-6.72-15-15v-240c0-8.28 6.72-15 15-15h60c8.28 0 15 6.72 15 15z" fill="#fdbf00"/><path d="m481 92v240c0 8.28-6.72 15-15 15h-30v-270h30c8.28 0 15 6.72 15 15z" fill="#ff9100"/><path d="m481 362v34.54l-45 67.5-45-67.5v-34.54c0-8.28 6.72-15 15-15h60c8.28 0 15 6.72 15 15z" fill="#ffcebf"/><path d="m481 362v34.54l-45 67.5v-117.04h30c8.28 0 15 6.72 15 15z" fill="#ffa78f"/><path d="m91 212h30v30h-30z" fill="#ff9100"/><path d="m151 212h150v30h-150z" fill="#6c6fa9"/><path d="m91 272h30v30h-30z" fill="#ff9100"/><path d="m151 272h150v30h-150z" fill="#6c6fa9"/><path d="m91 332h30v30h-30z" fill="#ff9100"/><path d="m151 332h150v30h-150z" fill="#6c6fa9"/><path d="m91 392h30v30h-30z" fill="#ff9100"/><path d="m151 392h150v30h-150z" fill="#6c6fa9"/><path d="m391 332h90v30h-90z" fill="#e8dde3"/><path d="m436 332h45v30h-45z" fill="#e2d0da"/><path d="m391 62h90v30h-90z" fill="#6c6fa9"/><g fill="#574f7f"><path d="m436 62h45v30h-45z"/><path d="m196 212h105v30h-105z"/><path d="m196 272h105v30h-105z"/><path d="m196 332h105v30h-105z"/><path d="m196 392h105v30h-105z"/></g></svg>